<?xml version="1.0" encoding="utf-8"?><svg xmlns="http://www.w3.org/2000/svg" xmlns:xlink="http://www.w3.org/1999/xlink"><symbol viewBox="0 0 145 36" id="logo" xmlns="http://www.w3.org/2000/svg"><g fill-rule="evenodd"><path d="M18 0c9.941 0 18 8.059 18 18s-8.059 18-18 18S0 27.941 0 18 8.059 0 18 0zm0 5.04C10.854 5.04 5.04 10.854 5.04 18c0 7.146 5.814 12.96 12.96 12.96 7.146 0 12.96-5.814 12.96-12.96 0-7.146-5.814-12.96-12.96-12.96zm0 23.4c-5.757 0-10.44-4.683-10.44-10.44S12.243 7.56 18 7.56 28.44 12.243 28.44 18 23.757 28.44 18 28.44zm5.63-16.055l-7.356 3.683a.46.46 0 0 0-.206.206l-3.683 7.357a.46.46 0 0 0 .616.616l7.357-3.683a.46.46 0 0 0 .206-.206l3.683-7.357a.46.46 0 0 0-.616-.616zm-5.314 6.85a.92.92 0 0 1 0-1.837.92.92 0 0 1 0 1.836z"/><text font-family="Muli-Black, Muli" font-size="24" font-weight="700"><tspan x="48.44" y="26">tapdesk</tspan></text></g></symbol></svg>