<?xml version="1.0" encoding="utf-8"?><svg xmlns="http://www.w3.org/2000/svg" xmlns:xlink="http://www.w3.org/1999/xlink"><symbol viewBox="0 0 40 40" id="ai" xmlns="http://www.w3.org/2000/svg"><path d="M24 12V8c0-4.41 3.582-8 8-8 4.41 0 8 3.582 8 8 0 4.41-3.582 8-8 8h-4v8h4c4.418 0 8 3.59 8 8 0 4.418-3.59 8-8 8-4.418 0-8-3.59-8-8v-4h-8v4c0 4.41-3.582 8-8 8-4.41 0-8-3.582-8-8 0-4.41 3.582-8 8-8h4v-8H8c-4.418 0-8-3.59-8-8 0-4.418 3.59-8 8-8 4.418 0 8 3.59 8 8v4h8zm-8 4v8h8v-8h-8zm-8-4h4V8c0-2.204-1.795-4-4-4-2.204 0-4 1.795-4 4 0 2.204 1.795 4 4 4zm24 0c2.205 0 4-1.796 4-4 0-2.205-1.796-4-4-4-2.205 0-4 1.796-4 4v4h4zm0 16h-4v4c0 2.204 1.795 4 4 4 2.204 0 4-1.795 4-4 0-2.204-1.795-4-4-4zM8 28c-2.205 0-4 1.796-4 4 0 2.205 1.796 4 4 4 2.205 0 4-1.796 4-4v-4H8z" fill-rule="evenodd"/></symbol><symbol viewBox="0 0 40 40" id="analytics" xmlns="http://www.w3.org/2000/svg"><path d="M18.55 24.271a3.99 3.99 0 0 1 1.687-.264L30.52 7.973A4 4 0 1 1 34 10c-.01 0-10.426 16.203-10.426 16.203a4 4 0 1 1-7.528 1.189l-4.551-3.68a4 4 0 1 1 2.466-3.15l4.588 3.71zM4 36h34.003c1.103 0 1.997.888 1.997 2 0 1.105-.892 2-1.997 2H1.997A1.991 1.991 0 0 1 0 38.003V1.997C0 .894.888 0 2 0c1.105 0 2 .892 2 1.997V36z" fill-rule="evenodd"/></symbol><symbol viewBox="0 0 30.727 30.727" id="angle" xmlns="http://www.w3.org/2000/svg"><path d="M29.994 10.183L15.363 24.812.733 10.184a2.5 2.5 0 1 1 3.536-3.536l11.095 11.093L26.461 6.647a2.5 2.5 0 1 1 3.533 3.536z"/></symbol><symbol viewBox="0 0 36 39" id="batman" xmlns="http://www.w3.org/2000/svg"><path d="M30 14.07c0 3.073-1.155 5.877-3.056 8h3.029c1.1 0 2.23.86 2.528 1.93l3.381 12.14c.297 1.066-.356 1.93-1.471 1.932l-32.865.027c-1.11 0-1.771-.86-1.475-1.932L3.43 24.003c.295-1.068 1.434-1.933 2.525-1.933h3.1a11.955 11.955 0 0 1-3.055-8V2.08C6-.135 7.265-.664 8.822.895l2.926 2.93A11.944 11.944 0 0 1 18 2.07c2.296 0 4.442.645 6.265 1.763L27.2.895c1.556-1.559 2.82-1.03 2.82 1.185L30 14.07zm1.17 20.001l-2.251-8.001-21.913.004-2.221 7.996H11c0-2.21 3.134-4 7-4s7 1.79 7 4l6.17.001zM18.961 17.852c-.531.134-1.39.135-1.924 0l-6.766-1.705a8.003 8.003 0 0 0 15.456 0l-6.766 1.705zM22 14.07a2 2 0 1 0 0-4 2 2 0 0 0 0 4zm-8 0a2 2 0 1 0 0-4 2 2 0 0 0 0 4z" fill-rule="evenodd"/></symbol><symbol viewBox="0 0 45.701 45.7" id="check" xmlns="http://www.w3.org/2000/svg"><path d="M20.687 38.332a5.308 5.308 0 0 1-7.505 0L1.554 26.704A5.306 5.306 0 1 1 9.059 19.2l6.928 6.927a1.344 1.344 0 0 0 1.896 0L36.642 7.368a5.308 5.308 0 0 1 7.505 7.504l-23.46 23.46z"/></symbol><symbol viewBox="0 0 44 42" id="cloud" xmlns="http://www.w3.org/2000/svg"><path d="M11.925 26.91c0 1.202-.985 2.176-2.2 2.176a2.22 2.22 0 0 1-.562-.072C3.9 27.719 0 23.012 0 17.405 0 10.797 5.417 5.44 12.1 5.44A12.718 12.718 0 0 1 22.55 0c6.054 0 11.114 4.205 12.357 9.823 5.09.406 9.093 4.62 9.093 9.758 0 5.407-4.432 9.79-9.9 9.79-1.215 0-2.2-.973-2.2-2.175s.985-2.176 2.2-2.176c3.038 0 5.5-2.435 5.5-5.439 0-2.838-2.209-5.195-5.047-5.421h-1.958c-.61 0-1.228-.474-1.38-1.06l-.606-2.347c-.82-3.71-4.164-6.402-8.059-6.402-.361 0-.719.023-1.07.069-4.053.52-7.18 3.944-7.18 8.09 0 1.202-.985 2.176-2.2 2.176-1.215 0-2.2-.974-2.2-2.176 0-.846.085-1.672.247-2.471-3.31.857-5.747 3.83-5.747 7.366 0 3.544 2.447 6.522 5.762 7.372a2.183 2.183 0 0 1 1.763 2.133zm5.846 6.005l2.237 2.238V22a2 2 0 0 1 4 0v13.152l2.236-2.238a1.999 1.999 0 0 1 2.835-.006 2.007 2.007 0 0 1-.006 2.836l-5.645 5.647a2 2 0 0 1-1.419.59 1.974 1.974 0 0 1-1.416-.584l-5.65-5.653a2 2 0 1 1 2.828-2.83z" fill-rule="evenodd"/></symbol><symbol viewBox="0 0 40 37" id="features" xmlns="http://www.w3.org/2000/svg"><path d="M4 12.1c0 6.302 6.121 13.918 16.011 20.438C29.901 26.018 36 18.564 36 12.1c0-4.456-3.582-8.067-8-8.067-2 0-3.874.737-5.332 2.053l-1.925 1.737c-.41.37-1.07.375-1.486 0l-1.925-1.737A7.916 7.916 0 0 0 12 4.034c-4.418 0-8 3.611-8 8.067zm16-9.019A11.9 11.9 0 0 1 28 0c6.627 0 12 5.418 12 12.1 0 9.755-10.012 19.16-19.15 24.68-.465.29-1.228.295-1.693.003C9.957 31.283 0 21.855 0 12.101 0 5.418 5.373 0 12 0a11.9 11.9 0 0 1 8 3.081z"/></symbol><symbol viewBox="0 0 40 40" id="features-box-0" xmlns="http://www.w3.org/2000/svg"><path d="M4 29.981v2.713c.7.427 6.292 3.3 16 3.3s15.3-2.87 16-3.297V29.98c0-3.432-7.614-6.102-8.157-6.306C26.14 26.732 23.623 29 20 29c-3.62 0-6.137-2.266-7.84-5.32-.538.202-8.16 2.862-8.16 6.301zm5-19.624C9 4.637 13.925 0 20 0s11 4.637 11 10.357c0 2.428-.424 6.152-1.573 9.635C33.433 21.522 40 24.002 40 29.981v4.014C40 36.205 31.37 40 20 40S0 36.198 0 33.995v-4.014c0-6 6.57-8.456 10.574-9.983C9.424 16.513 9 12.786 9 10.358zM20 25c3.94 0 7-7.235 7-14.643C27 6.902 23.918 4 20 4s-7 2.902-7 6.357C13 17.765 16.06 25 20 25z" fill-rule="evenodd"/></symbol><symbol viewBox="0 0 40 40" id="features-box-1" xmlns="http://www.w3.org/2000/svg"><path d="M1.332 15.746c-1.989.87-1.678 3.782.45 4.213l15.164 3.084 3.096 15.179c.433 2.125 3.343 2.433 4.212.446L39.807 3.12c.81-1.852-1.074-3.736-2.926-2.926L1.33 15.746zM23 30.496l-1.998-9.798a2.222 2.222 0 0 0-1.737-1.734l-9.69-1.975 23.9-10.456L23 30.495z"/></symbol><symbol viewBox="0 0 40 42" id="features-box-2" xmlns="http://www.w3.org/2000/svg"><path d="M36 10c0-1.105-.893-2-1.99-2A2.01 2.01 0 0 1 32 10c-1.105 0-2-.887-2-2h-4c0 1.105-.888 2-2 2-1.105 0-2-.887-2-2h-4c0 1.105-.888 2-2 2-1.105 0-2-.887-2-2h-4c0 1.105-.888 2-2 2-1.105 0-2-.887-2-2-1.109 0-2 .894-2 2v4h32v-4zM4 18v18c0 1.105.893 2 1.99 2h28.02c1.099 0 1.99-.894 1.99-2V18H4zm36-8v26c0 3.313-2.68 6-5.99 6H5.99A5.996 5.996 0 0 1 0 36V10c0-3.313 2.68-6 5.99-6L6 2c0-1.105.888-2 2-2 1.105 0 2 .887 2 2v2h4V2c0-1.105.888-2 2-2 1.105 0 2 .887 2 2v2h4V2c0-1.105.888-2 2-2 1.105 0 2 .887 2 2v2h4V2c0-1.105.888-2 2-2 1.105 0 2 .887 2 2v2c3.319 0 6 2.688 6 6z" fill-rule="evenodd"/></symbol><symbol viewBox="0 0 44 46" id="features-box-3" xmlns="http://www.w3.org/2000/svg"><path d="M44 31c0 8.284-6.716 15-15 15-5.091 0-9.59-2.537-12.302-6.415l-2.692-1.346-3.109 1.55a2 2 0 0 1-1.789 0l-3.102-1.55-3.112 1.55A2 2 0 0 1 0 38V4c0-2.211 1.786-4 4.002-4h27.996A3.997 3.997 0 0 1 36 4v13.73c4.758 2.515 8 7.514 8 13.27zM31.998 4H4v30.76l1.106-.55a2 2 0 0 1 1.788 0l3.126 1.56 3.085-1.56a2 2 0 0 1 1.2-.188A15.03 15.03 0 0 1 14 31c0-1.027.103-2.03.3-3H10c-1.104 0-2-.888-2-2 0-1.105.902-2 2-2h5.73c2.515-4.758 7.514-8 13.27-8 1.03 0 2.034.104 3.005.301L31.998 4zM8 18c0-1.105.887-2 1.998-2h4.004c1.103 0 1.998.888 1.998 2 0 1.105-.887 2-1.998 2H9.998A1.994 1.994 0 0 1 8 18zm0-8a2 2 0 0 1 1.99-2h16.02A1.99 1.99 0 0 1 28 10a2 2 0 0 1-1.99 2H9.99A1.99 1.99 0 0 1 8 10zm21 32c6.075 0 11-4.925 11-11s-4.925-11-11-11-11 4.925-11 11 4.925 11 11 11zm-3.414-4.586l-4-4a2 2 0 0 1 2.829-2.828l2.608 2.609 6.563-6.61a2 2 0 0 1 2.828 2.83l-8 8a2 2 0 0 1-2.828 0z" fill-rule="evenodd"/></symbol><symbol viewBox="0 0 40 40" id="features-box-4" xmlns="http://www.w3.org/2000/svg"><path d="M.851 12.339L17.221.838c1.59-1.117 3.967-1.118 5.557 0l16.371 11.5a2.003 2.003 0 0 1 .003 3.276L22.78 27.152c-1.591 1.121-3.97 1.122-5.562 0L.85 15.614a2.003 2.003 0 0 1 .002-3.275zm33.683 13.743s-.086-.042-.632-.423c-.905-.63-1.149-1.931-.514-2.83.635-.897 1.839-1.047 2.813-.422.58.37 2.57 1.735 2.95 2.055 1.127.95 1.136 2.459.003 3.25L22.77 39.166c-1.591 1.113-3.972 1.114-5.565 0L.822 27.713c-1.133-.792-1.059-2.362.002-3.25.393-.33 2.476-1.726 3.039-2.118a2.01 2.01 0 0 1 2.788.485 1.978 1.978 0 0 1-.488 2.768l-.72.5 14.067 9.818c.21.147.746.147.956 0l14.068-9.834zM20.48 4.115c-.21-.149-.75-.148-.96 0l-14.05 9.87 14.051 9.894c.21.148.746.148.956 0l14.037-9.893L20.48 4.115z"/></symbol><symbol viewBox="0 0 24 28" id="flag" xmlns="http://www.w3.org/2000/svg"><path d="M3.6 4.2h18.199A1.4 1.4 0 0 1 23.2 5.594v11.212c0 .77-.622 1.394-1.401 1.394H3.6v8.402C3.6 27.374 2.979 28 2.2 28c-.773 0-1.4-.624-1.4-1.398V1.398C.8.626 1.421 0 2.2 0c.773 0 1.4.624 1.4 1.398V4.2zM7.8 7H12v4.2h4.2V7h4.2v4.2h-4.2v4.2H12v-4.2H7.8v4.2H3.6v-4.2h4.2V7z" fill-rule="evenodd"/></symbol><symbol viewBox="0 0 44 43" id="leads" xmlns="http://www.w3.org/2000/svg"><path d="M27.5 0C36.613 0 44 7.387 44 16.5c0 7.6-5.138 14-12.13 15.915C29.464 38.553 23.49 42.9 16.5 42.9 7.387 42.9 0 35.513 0 26.4c0-7.6 5.138-14 12.13-15.915C14.536 4.347 20.51 0 27.5 0zM33 26.4c0 .3-.008.597-.024.893A12.1 12.1 0 0 0 39.6 16.5c0-6.683-5.417-12.1-12.1-12.1-4.257 0-8 2.198-10.157 5.521C26.064 10.361 33 17.57 33 26.4zM16.5 38.5c6.683 0 12.1-5.417 12.1-12.1s-5.417-12.1-12.1-12.1S4.4 19.717 4.4 26.4s5.417 12.1 12.1 12.1zm2.2-9.9c1.216 0 2.2.977 2.2 2.2 0 1.215-.975 2.2-2.198 2.2h-4.404a2.194 2.194 0 0 1-2.198-2.2c0-1.215.975-2.2 2.198-2.2l.002-2.2c-1.216 0-2.2-.977-2.2-2.2 0-1.215.988-2.2 2.198-2.2a2.203 2.203 0 0 1 2.202-2.2c1.215 0 2.2.992 2.2 2.21v6.59z" fill-rule="evenodd"/></symbol><symbol viewBox="0 0 20 20" id="login" xmlns="http://www.w3.org/2000/svg"><path d="M12.001 11.5a1 1 0 0 1 0 2H11v1h1.001a1 1 0 0 1 0 2H10c-.552 0-1-.447-1-.996V9.83a3.001 3.001 0 1 1 2 0v1.67h1.001zM20 10c0 5.523-4.477 10-10 10S0 15.523 0 10 4.477 0 10 0s10 4.477 10 10zM2 10a8 8 0 1 0 16 0 8 8 0 0 0-16 0zm9-3a1 1 0 1 0-2 0 1 1 0 0 0 2 0z" fill-rule="evenodd" opacity=".4"/></symbol><symbol viewBox="0 0 145 36" id="logo" xmlns="http://www.w3.org/2000/svg"><g fill-rule="evenodd"><path d="M18 0c9.941 0 18 8.059 18 18s-8.059 18-18 18S0 27.941 0 18 8.059 0 18 0zm0 5.04C10.854 5.04 5.04 10.854 5.04 18c0 7.146 5.814 12.96 12.96 12.96 7.146 0 12.96-5.814 12.96-12.96 0-7.146-5.814-12.96-12.96-12.96zm0 23.4c-5.757 0-10.44-4.683-10.44-10.44S12.243 7.56 18 7.56 28.44 12.243 28.44 18 23.757 28.44 18 28.44zm5.63-16.055l-7.356 3.683a.46.46 0 0 0-.206.206l-3.683 7.357a.46.46 0 0 0 .616.616l7.357-3.683a.46.46 0 0 0 .206-.206l3.683-7.357a.46.46 0 0 0-.616-.616zm-5.314 6.85a.92.92 0 0 1 0-1.837.92.92 0 0 1 0 1.836z"/><text font-family="Muli-Black, Muli" font-size="24" font-weight="700"><tspan x="48.44" y="26">tapdesk</tspan></text></g></symbol><symbol viewBox="0 0 26 36" id="money" xmlns="http://www.w3.org/2000/svg"><path d="M18.073 4.938c-2.306.879-4.346 1.01-5.077 1.009-.731 0-2.77-.13-5.077-1.01.173.452.631 1.599 1.038 2.61h8.078c.407-1.011.865-2.158 1.038-2.61zm4.527 6.609c0 1.29-.61 2.436-1.557 3.168 2.665 2.832 4.757 6.476 4.757 9.632 0 6.85-5.418 11.2-12.8 11.2-7.382 0-12.8-4.35-12.8-11.2 0-3.157 2.093-6.801 4.758-9.634a3.999 3.999 0 0 1 .715-6.775l-2.16-5.397C2.957 1.156 4.367-.005 5.75.535c2.168.847 4.614 1.81 5.559 2.03a6.237 6.237 0 0 0 1.686.182c.5 0 .909 0 1.686-.182.945-.22 3.391-1.183 5.559-2.03 1.383-.54 2.793.62 2.239 2.006l-2.16 5.395a4.004 4.004 0 0 1 2.28 3.61zM7.443 16.76C4.936 19.256 3.4 22.035 3.4 24.347c0 4.91 3.85 8 9.6 8s9.6-3.09 9.6-8c0-2.312-1.536-5.091-4.043-7.586a20.29 20.29 0 0 0-1.335-1.214H8.778c-.45.374-.9.782-1.335 1.214zM6.6 11.547c0 .439.36.8.802.8h11.196a.8.8 0 1 0 0-1.6H7.402a.8.8 0 0 0-.802.8zm8 7.2a1.6 1.6 0 1 1 0 3.2H13a1.6 1.6 0 1 0 0 3.2h1.6a1.6 1.6 0 1 1 0 3.2H13a4.8 4.8 0 1 1 0-9.6h1.6z" fill-rule="evenodd"/></symbol><symbol viewBox="0 0 40 42" id="pipelines" xmlns="http://www.w3.org/2000/svg"><path d="M40 9c0 5.486-9.035 9-20 9S0 14.486 0 9c0-5.486 9.035-9 20-9s20 3.514 20 9zM20 26c-5.753 0-11.164-1.065-14.856-2.822a2 2 0 0 1 1.72-3.612C9.967 21.044 14.801 22 20 22c5.246 0 10.022-.935 13.12-2.434a2 2 0 1 1 1.743 3.6C31.169 24.955 25.808 26 20 26zm0 8c-2.905 0-5.789-.257-8.358-.747a2 2 0 0 1 .75-3.93c2.317.443 4.95.677 7.608.677 2.72 0 5.263-.203 7.62-.665a2 2 0 0 1 .77 3.926c-2.616.512-5.416.739-8.39.739zm0 8a48.14 48.14 0 0 1-3.086-.098 2 2 0 1 1 .256-3.992c.929.06 1.874.09 2.83.09 1.316 0 2.574.003 3.832-.11a2 2 0 0 1 .356 3.985C22.812 41.998 21.434 42 20 42zM4 9c0 2.246 7.083 5 16 5s16-2.754 16-5-7.083-5-16-5S4 6.754 4 9z"/></symbol><symbol viewBox="0 0 69 80" id="play" xmlns="http://www.w3.org/2000/svg"><path d="M61.952 27.863a2.442 2.442 0 0 0-3.398.802c-.72 1.177-.368 2.724.788 3.458 2.69 1.707 4.296 4.652 4.296 7.877 0 3.226-1.606 6.171-4.296 7.878L18.884 73.547c-2.854 1.81-6.314 1.9-9.255.24-2.94-1.661-4.696-4.696-4.696-8.118V14.332c0-3.423 1.755-6.457 4.696-8.118 2.94-1.66 6.4-1.57 9.255.24l23.552 14.942a2.443 2.443 0 0 0 3.398-.801c.721-1.177.368-2.725-.788-3.458L21.494 2.195c-4.397-2.79-9.727-2.928-14.258-.37C2.705 4.384 0 9.06 0 14.332v51.336c0 5.273 2.705 9.948 7.236 12.507C9.394 79.393 11.733 80 14.066 80c2.566 0 5.126-.734 7.428-2.195l40.458-25.668c4.145-2.63 6.62-7.167 6.62-12.137 0-4.97-2.475-9.507-6.62-12.137z" fill-rule="evenodd"/></symbol><symbol viewBox="0 0 48 36" id="request" xmlns="http://www.w3.org/2000/svg"><path d="M30 20.83l-2.585 2.584a2 2 0 0 1-2.82.008l-3.97-3.93a2 2 0 0 1 2.813-2.843l2.563 2.576L41.18 4H2a2 2 0 0 1 0-4h42.004A3.995 3.995 0 0 1 48 4.002v27.996A3.998 3.998 0 0 1 44.003 36H13.999a2 2 0 0 1 0-4h27.172l-11.17-11.17zM44.003 6.825L32.828 18l11.173 11.171.002-22.346zM4.003 12c0-1.105.896-2 2.005-2h9.988c1.108 0 2.006.888 2.006 2 0 1.105-.897 2-2.006 2H6.008a1.998 1.998 0 0 1-2.006-2zm4 12c0-1.105.887-2 1.999-2h6c1.104 0 2 .888 2 2 0 1.105-.888 2-2 2h-6c-1.105 0-2-.888-2-2z" fill-rule="evenodd" opacity=".4"/></symbol><symbol viewBox="0 0 16 20" id="signup" xmlns="http://www.w3.org/2000/svg"><path d="M6 13.5a2 2 0 1 1 3 1.732v.769A.997.997 0 0 1 8 17c-.552 0-1-.443-1-1v-.768A2 2 0 0 1 6 13.5zM2 6a6 6 0 1 1 12 0v2.5a2 2 0 0 1 2 2.003v7.494A2.001 2.001 0 0 1 13.998 20H2.002A2 2 0 0 1 0 17.997v-7.494C0 9.398.893 8.501 2 8.5V6zm2 2.5h8V6a4 4 0 1 0-8 0v2.5zm-2 2V18h12v-7.5H2z" fill-rule="evenodd" opacity=".4"/></symbol></svg>