<?xml version="1.0" encoding="utf-8"?><svg xmlns="http://www.w3.org/2000/svg" xmlns:xlink="http://www.w3.org/1999/xlink"><symbol viewBox="0 0 40 40" id="ai" xmlns="http://www.w3.org/2000/svg"><path d="M24 12V8c0-4.41 3.582-8 8-8 4.41 0 8 3.582 8 8 0 4.41-3.582 8-8 8h-4v8h4c4.418 0 8 3.59 8 8 0 4.418-3.59 8-8 8-4.418 0-8-3.59-8-8v-4h-8v4c0 4.41-3.582 8-8 8-4.41 0-8-3.582-8-8 0-4.41 3.582-8 8-8h4v-8H8c-4.418 0-8-3.59-8-8 0-4.418 3.59-8 8-8 4.418 0 8 3.59 8 8v4h8zm-8 4v8h8v-8h-8zm-8-4h4V8c0-2.204-1.795-4-4-4-2.204 0-4 1.795-4 4 0 2.204 1.795 4 4 4zm24 0c2.205 0 4-1.796 4-4 0-2.205-1.796-4-4-4-2.205 0-4 1.796-4 4v4h4zm0 16h-4v4c0 2.204 1.795 4 4 4 2.204 0 4-1.795 4-4 0-2.204-1.795-4-4-4zM8 28c-2.205 0-4 1.796-4 4 0 2.205 1.796 4 4 4 2.205 0 4-1.796 4-4v-4H8z" fill-rule="evenodd"/></symbol><symbol viewBox="0 0 40 40" id="analytics" xmlns="http://www.w3.org/2000/svg"><path d="M18.55 24.271a3.99 3.99 0 0 1 1.687-.264L30.52 7.973A4 4 0 1 1 34 10c-.01 0-10.426 16.203-10.426 16.203a4 4 0 1 1-7.528 1.189l-4.551-3.68a4 4 0 1 1 2.466-3.15l4.588 3.71zM4 36h34.003c1.103 0 1.997.888 1.997 2 0 1.105-.892 2-1.997 2H1.997A1.991 1.991 0 0 1 0 38.003V1.997C0 .894.888 0 2 0c1.105 0 2 .892 2 1.997V36z" fill-rule="evenodd"/></symbol><symbol viewBox="0 0 44 42" id="cloud" xmlns="http://www.w3.org/2000/svg"><path d="M11.925 26.91c0 1.202-.985 2.176-2.2 2.176a2.22 2.22 0 0 1-.562-.072C3.9 27.719 0 23.012 0 17.405 0 10.797 5.417 5.44 12.1 5.44A12.718 12.718 0 0 1 22.55 0c6.054 0 11.114 4.205 12.357 9.823 5.09.406 9.093 4.62 9.093 9.758 0 5.407-4.432 9.79-9.9 9.79-1.215 0-2.2-.973-2.2-2.175s.985-2.176 2.2-2.176c3.038 0 5.5-2.435 5.5-5.439 0-2.838-2.209-5.195-5.047-5.421h-1.958c-.61 0-1.228-.474-1.38-1.06l-.606-2.347c-.82-3.71-4.164-6.402-8.059-6.402-.361 0-.719.023-1.07.069-4.053.52-7.18 3.944-7.18 8.09 0 1.202-.985 2.176-2.2 2.176-1.215 0-2.2-.974-2.2-2.176 0-.846.085-1.672.247-2.471-3.31.857-5.747 3.83-5.747 7.366 0 3.544 2.447 6.522 5.762 7.372a2.183 2.183 0 0 1 1.763 2.133zm5.846 6.005l2.237 2.238V22a2 2 0 0 1 4 0v13.152l2.236-2.238a1.999 1.999 0 0 1 2.835-.006 2.007 2.007 0 0 1-.006 2.836l-5.645 5.647a2 2 0 0 1-1.419.59 1.974 1.974 0 0 1-1.416-.584l-5.65-5.653a2 2 0 1 1 2.828-2.83z" fill-rule="evenodd"/></symbol><symbol viewBox="0 0 40 37" id="features" xmlns="http://www.w3.org/2000/svg"><path d="M4 12.1c0 6.302 6.121 13.918 16.011 20.438C29.901 26.018 36 18.564 36 12.1c0-4.456-3.582-8.067-8-8.067-2 0-3.874.737-5.332 2.053l-1.925 1.737c-.41.37-1.07.375-1.486 0l-1.925-1.737A7.916 7.916 0 0 0 12 4.034c-4.418 0-8 3.611-8 8.067zm16-9.019A11.9 11.9 0 0 1 28 0c6.627 0 12 5.418 12 12.1 0 9.755-10.012 19.16-19.15 24.68-.465.29-1.228.295-1.693.003C9.957 31.283 0 21.855 0 12.101 0 5.418 5.373 0 12 0a11.9 11.9 0 0 1 8 3.081z"/></symbol><symbol viewBox="0 0 40 40" id="features-box-0" xmlns="http://www.w3.org/2000/svg"><path d="M4 29.981v2.713c.7.427 6.292 3.3 16 3.3s15.3-2.87 16-3.297V29.98c0-3.432-7.614-6.102-8.157-6.306C26.14 26.732 23.623 29 20 29c-3.62 0-6.137-2.266-7.84-5.32-.538.202-8.16 2.862-8.16 6.301zm5-19.624C9 4.637 13.925 0 20 0s11 4.637 11 10.357c0 2.428-.424 6.152-1.573 9.635C33.433 21.522 40 24.002 40 29.981v4.014C40 36.205 31.37 40 20 40S0 36.198 0 33.995v-4.014c0-6 6.57-8.456 10.574-9.983C9.424 16.513 9 12.786 9 10.358zM20 25c3.94 0 7-7.235 7-14.643C27 6.902 23.918 4 20 4s-7 2.902-7 6.357C13 17.765 16.06 25 20 25z" fill-rule="evenodd"/></symbol><symbol viewBox="0 0 40 40" id="features-box-1" xmlns="http://www.w3.org/2000/svg"><path d="M1.332 15.746c-1.989.87-1.678 3.782.45 4.213l15.164 3.084 3.096 15.179c.433 2.125 3.343 2.433 4.212.446L39.807 3.12c.81-1.852-1.074-3.736-2.926-2.926L1.33 15.746zM23 30.496l-1.998-9.798a2.222 2.222 0 0 0-1.737-1.734l-9.69-1.975 23.9-10.456L23 30.495z"/></symbol><symbol viewBox="0 0 40 42" id="features-box-2" xmlns="http://www.w3.org/2000/svg"><path d="M36 10c0-1.105-.893-2-1.99-2A2.01 2.01 0 0 1 32 10c-1.105 0-2-.887-2-2h-4c0 1.105-.888 2-2 2-1.105 0-2-.887-2-2h-4c0 1.105-.888 2-2 2-1.105 0-2-.887-2-2h-4c0 1.105-.888 2-2 2-1.105 0-2-.887-2-2-1.109 0-2 .894-2 2v4h32v-4zM4 18v18c0 1.105.893 2 1.99 2h28.02c1.099 0 1.99-.894 1.99-2V18H4zm36-8v26c0 3.313-2.68 6-5.99 6H5.99A5.996 5.996 0 0 1 0 36V10c0-3.313 2.68-6 5.99-6L6 2c0-1.105.888-2 2-2 1.105 0 2 .887 2 2v2h4V2c0-1.105.888-2 2-2 1.105 0 2 .887 2 2v2h4V2c0-1.105.888-2 2-2 1.105 0 2 .887 2 2v2h4V2c0-1.105.888-2 2-2 1.105 0 2 .887 2 2v2c3.319 0 6 2.688 6 6z" fill-rule="evenodd"/></symbol><symbol viewBox="0 0 44 46" id="features-box-3" xmlns="http://www.w3.org/2000/svg"><path d="M44 31c0 8.284-6.716 15-15 15-5.091 0-9.59-2.537-12.302-6.415l-2.692-1.346-3.109 1.55a2 2 0 0 1-1.789 0l-3.102-1.55-3.112 1.55A2 2 0 0 1 0 38V4c0-2.211 1.786-4 4.002-4h27.996A3.997 3.997 0 0 1 36 4v13.73c4.758 2.515 8 7.514 8 13.27zM31.998 4H4v30.76l1.106-.55a2 2 0 0 1 1.788 0l3.126 1.56 3.085-1.56a2 2 0 0 1 1.2-.188A15.03 15.03 0 0 1 14 31c0-1.027.103-2.03.3-3H10c-1.104 0-2-.888-2-2 0-1.105.902-2 2-2h5.73c2.515-4.758 7.514-8 13.27-8 1.03 0 2.034.104 3.005.301L31.998 4zM8 18c0-1.105.887-2 1.998-2h4.004c1.103 0 1.998.888 1.998 2 0 1.105-.887 2-1.998 2H9.998A1.994 1.994 0 0 1 8 18zm0-8a2 2 0 0 1 1.99-2h16.02A1.99 1.99 0 0 1 28 10a2 2 0 0 1-1.99 2H9.99A1.99 1.99 0 0 1 8 10zm21 32c6.075 0 11-4.925 11-11s-4.925-11-11-11-11 4.925-11 11 4.925 11 11 11zm-3.414-4.586l-4-4a2 2 0 0 1 2.829-2.828l2.608 2.609 6.563-6.61a2 2 0 0 1 2.828 2.83l-8 8a2 2 0 0 1-2.828 0z" fill-rule="evenodd"/></symbol><symbol viewBox="0 0 40 40" id="features-box-4" xmlns="http://www.w3.org/2000/svg"><path d="M.851 12.339L17.221.838c1.59-1.117 3.967-1.118 5.557 0l16.371 11.5a2.003 2.003 0 0 1 .003 3.276L22.78 27.152c-1.591 1.121-3.97 1.122-5.562 0L.85 15.614a2.003 2.003 0 0 1 .002-3.275zm33.683 13.743s-.086-.042-.632-.423c-.905-.63-1.149-1.931-.514-2.83.635-.897 1.839-1.047 2.813-.422.58.37 2.57 1.735 2.95 2.055 1.127.95 1.136 2.459.003 3.25L22.77 39.166c-1.591 1.113-3.972 1.114-5.565 0L.822 27.713c-1.133-.792-1.059-2.362.002-3.25.393-.33 2.476-1.726 3.039-2.118a2.01 2.01 0 0 1 2.788.485 1.978 1.978 0 0 1-.488 2.768l-.72.5 14.067 9.818c.21.147.746.147.956 0l14.068-9.834zM20.48 4.115c-.21-.149-.75-.148-.96 0l-14.05 9.87 14.051 9.894c.21.148.746.148.956 0l14.037-9.893L20.48 4.115z"/></symbol><symbol viewBox="0 0 44 43" id="leads" xmlns="http://www.w3.org/2000/svg"><path d="M27.5 0C36.613 0 44 7.387 44 16.5c0 7.6-5.138 14-12.13 15.915C29.464 38.553 23.49 42.9 16.5 42.9 7.387 42.9 0 35.513 0 26.4c0-7.6 5.138-14 12.13-15.915C14.536 4.347 20.51 0 27.5 0zM33 26.4c0 .3-.008.597-.024.893A12.1 12.1 0 0 0 39.6 16.5c0-6.683-5.417-12.1-12.1-12.1-4.257 0-8 2.198-10.157 5.521C26.064 10.361 33 17.57 33 26.4zM16.5 38.5c6.683 0 12.1-5.417 12.1-12.1s-5.417-12.1-12.1-12.1S4.4 19.717 4.4 26.4s5.417 12.1 12.1 12.1zm2.2-9.9c1.216 0 2.2.977 2.2 2.2 0 1.215-.975 2.2-2.198 2.2h-4.404a2.194 2.194 0 0 1-2.198-2.2c0-1.215.975-2.2 2.198-2.2l.002-2.2c-1.216 0-2.2-.977-2.2-2.2 0-1.215.988-2.2 2.198-2.2a2.203 2.203 0 0 1 2.202-2.2c1.215 0 2.2.992 2.2 2.21v6.59z" fill-rule="evenodd"/></symbol><symbol viewBox="0 0 145 36" id="logo" xmlns="http://www.w3.org/2000/svg"><g fill-rule="evenodd"><path d="M18 0c9.941 0 18 8.059 18 18s-8.059 18-18 18S0 27.941 0 18 8.059 0 18 0zm0 5.04C10.854 5.04 5.04 10.854 5.04 18c0 7.146 5.814 12.96 12.96 12.96 7.146 0 12.96-5.814 12.96-12.96 0-7.146-5.814-12.96-12.96-12.96zm0 23.4c-5.757 0-10.44-4.683-10.44-10.44S12.243 7.56 18 7.56 28.44 12.243 28.44 18 23.757 28.44 18 28.44zm5.63-16.055l-7.356 3.683a.46.46 0 0 0-.206.206l-3.683 7.357a.46.46 0 0 0 .616.616l7.357-3.683a.46.46 0 0 0 .206-.206l3.683-7.357a.46.46 0 0 0-.616-.616zm-5.314 6.85a.92.92 0 0 1 0-1.837.92.92 0 0 1 0 1.836z"/><text font-family="Muli-Black, Muli" font-size="24" font-weight="700"><tspan x="48.44" y="26">tapdesk</tspan></text></g></symbol><symbol viewBox="0 0 40 42" id="pipelines" xmlns="http://www.w3.org/2000/svg"><path d="M40 9c0 5.486-9.035 9-20 9S0 14.486 0 9c0-5.486 9.035-9 20-9s20 3.514 20 9zM20 26c-5.753 0-11.164-1.065-14.856-2.822a2 2 0 0 1 1.72-3.612C9.967 21.044 14.801 22 20 22c5.246 0 10.022-.935 13.12-2.434a2 2 0 1 1 1.743 3.6C31.169 24.955 25.808 26 20 26zm0 8c-2.905 0-5.789-.257-8.358-.747a2 2 0 0 1 .75-3.93c2.317.443 4.95.677 7.608.677 2.72 0 5.263-.203 7.62-.665a2 2 0 0 1 .77 3.926c-2.616.512-5.416.739-8.39.739zm0 8a48.14 48.14 0 0 1-3.086-.098 2 2 0 1 1 .256-3.992c.929.06 1.874.09 2.83.09 1.316 0 2.574.003 3.832-.11a2 2 0 0 1 .356 3.985C22.812 41.998 21.434 42 20 42zM4 9c0 2.246 7.083 5 16 5s16-2.754 16-5-7.083-5-16-5S4 6.754 4 9z"/></symbol><symbol viewBox="0 0 48 36" id="request" xmlns="http://www.w3.org/2000/svg"><path d="M30 20.83l-2.585 2.584a2 2 0 0 1-2.82.008l-3.97-3.93a2 2 0 0 1 2.813-2.843l2.563 2.576L41.18 4H2a2 2 0 0 1 0-4h42.004A3.995 3.995 0 0 1 48 4.002v27.996A3.998 3.998 0 0 1 44.003 36H13.999a2 2 0 0 1 0-4h27.172l-11.17-11.17zM44.003 6.825L32.828 18l11.173 11.171.002-22.346zM4.003 12c0-1.105.896-2 2.005-2h9.988c1.108 0 2.006.888 2.006 2 0 1.105-.897 2-2.006 2H6.008a1.998 1.998 0 0 1-2.006-2zm4 12c0-1.105.887-2 1.999-2h6c1.104 0 2 .888 2 2 0 1.105-.888 2-2 2h-6c-1.105 0-2-.888-2-2z" fill-rule="evenodd" opacity=".4"/></symbol></svg>